<svg width="494" height="494" viewBox="0 0 494 494" fill="none" xmlns="http://www.w3.org/2000/svg">
<circle cx="247" cy="247" r="247" fill="#EEEEEE"/>
<path opacity="0.8" d="M92.672 392L117.068 89.832H161.58L230.916 253.328C237.764 270.02 245.896 293.988 245.896 293.988H246.752C246.752 293.988 254.884 270.02 261.732 253.328L331.068 89.832H375.58L399.976 392H358.032L343.052 201.54C341.768 183.136 342.624 157.028 342.624 157.028H341.768C341.768 157.028 332.78 184.848 325.504 201.54L265.156 337.644H227.492L167.572 201.54C160.724 185.276 151.308 156.172 151.308 156.172H150.452C150.452 156.172 150.88 183.136 149.596 201.54L135.044 392H92.672Z" fill="#303030"/>
</svg>
